<svg width="204" height="26" viewBox="0 0 204 26" fill="none" xmlns="http://www.w3.org/2000/svg">
<path d="M21.5794 0.734375H7.59898C5.58425 0.736475 3.65264 1.53775 2.22801 2.96239C0.803379 4.38702 0.00209977 6.31863 0 8.33336V17.6536C0.00209977 19.6684 0.803379 21.6 2.22801 23.0246C3.65264 24.4492 5.58425 25.2505 7.59898 25.2526H21.5794C23.5941 25.2505 25.5257 24.4492 26.9503 23.0246C28.375 21.6 29.1763 19.6684 29.1784 17.6536V8.33336C29.1763 6.31863 28.375 4.38702 26.9503 2.96239C25.5257 1.53775 23.5941 0.736475 21.5794 0.734375ZM23.3046 17.6536C23.3067 17.8806 23.2635 18.1057 23.1775 18.3158C23.0915 18.5258 22.9645 18.7166 22.8038 18.8769C22.6431 19.0372 22.452 19.1638 22.2418 19.2493C22.0315 19.3349 21.8063 19.3775 21.5794 19.3749H7.59898C7.37169 19.3776 7.14615 19.3347 6.93563 19.249C6.72512 19.1632 6.53387 19.0362 6.37313 18.8755C6.2124 18.7148 6.08542 18.5235 5.99966 18.313C5.9139 18.1025 5.87109 17.877 5.87375 17.6497V8.33336C5.87109 8.10606 5.9139 7.88052 5.99966 7.67001C6.08542 7.45949 6.2124 7.26824 6.37313 7.10751C6.53387 6.94677 6.72512 6.81979 6.93563 6.73403C7.14615 6.64827 7.37169 6.60546 7.59898 6.60812H21.5794C21.8067 6.60546 22.0322 6.64827 22.2427 6.73403C22.4532 6.81979 22.6445 6.94677 22.8052 7.10751C22.966 7.26824 23.0929 7.45949 23.1787 7.67001C23.2645 7.88052 23.3073 8.10606 23.3046 8.33336V17.6536Z" fill="#000105"/>
<path d="M53.2643 0.734375H39.2641C37.2525 0.740671 35.3253 1.54393 33.9047 2.96822C32.4842 4.39251 31.686 6.32174 31.6849 8.33336V25.2526H37.5587V8.33336C37.556 8.10774 37.5982 7.88384 37.6827 7.67464C37.7673 7.46543 37.8925 7.27508 38.0511 7.11461C38.2097 6.95415 38.3986 6.82675 38.6068 6.73981C38.815 6.65287 39.0384 6.60811 39.2641 6.60812H53.2643C53.4914 6.60545 53.7168 6.64828 53.9271 6.73409C54.1374 6.81989 54.3284 6.94694 54.4888 7.10773C54.6492 7.26852 54.7758 7.45981 54.8611 7.6703C54.9464 7.8808 54.9888 8.10625 54.9856 8.33336V25.2526H60.8633V8.33336C60.8612 6.31863 60.0599 4.38702 58.6353 2.96239C57.2106 1.53775 55.279 0.736475 53.2643 0.734375Z" fill="#000105"/>
<path d="M84.977 0.734375H70.9926C68.9779 0.736475 67.0463 1.53775 65.6216 2.96239C64.197 4.38702 63.3957 6.31863 63.3936 8.33336V17.6536C63.3957 19.6684 64.197 21.6 65.6216 23.0246C67.0463 24.4492 68.9779 25.2505 70.9926 25.2526H90.0853L91.8502 19.3749H70.9926C70.7653 19.3776 70.5398 19.3347 70.3293 19.249C70.1187 19.1632 69.9275 19.0362 69.7668 18.8755C69.606 18.7148 69.479 18.5235 69.3933 18.313C69.3075 18.1025 69.2647 17.877 69.2674 17.6497V15.9323H92.572V8.33336C92.5699 6.31931 91.7691 4.3883 90.3454 2.96378C88.9216 1.53927 86.991 0.737524 84.977 0.734375ZM86.7022 10.0546H69.2515V8.33336C69.2488 8.1047 69.2921 7.87784 69.3788 7.66625C69.4656 7.45467 69.594 7.2627 69.7564 7.10174C69.9189 6.94079 70.112 6.81414 70.3244 6.72934C70.5367 6.64454 70.764 6.60332 70.9926 6.60812H84.973C85.2003 6.60546 85.4258 6.64827 85.6364 6.73403C85.8469 6.81979 86.0381 6.94677 86.1989 7.10751C86.3596 7.26824 86.4866 7.45949 86.5723 7.67001C86.6581 7.88052 86.7009 8.10606 86.6982 8.33336L86.7022 10.0546Z" fill="#000105"/>
<path d="M102.721 6.60812H121.798L123.531 0.734375H102.721C100.706 0.736475 98.7748 1.53775 97.3502 2.96239C95.9255 4.38702 95.1243 6.31863 95.1222 8.33336V17.6536C95.1253 19.668 95.9269 21.599 97.3513 23.0234C98.7757 24.4478 100.707 25.2495 102.721 25.2526H122.329L123.519 19.3789H102.721C102.494 19.3815 102.268 19.3387 102.058 19.2529C101.847 19.1672 101.656 19.0402 101.495 18.8795C101.335 18.7187 101.208 18.5275 101.122 18.317C101.036 18.1065 100.993 17.8809 100.996 17.6536V8.33336C100.993 8.10606 101.036 7.88052 101.122 7.67001C101.208 7.45949 101.335 7.26824 101.495 7.10751C101.656 6.94677 101.847 6.81979 102.058 6.73403C102.268 6.64827 102.494 6.60546 102.721 6.60812Z" fill="#000105"/>
<path d="M147.209 0.734375H133.224C131.209 0.736475 129.278 1.53775 127.853 2.96239C126.429 4.38702 125.627 6.31863 125.625 8.33336V17.6536C125.628 19.668 126.43 21.599 127.854 23.0234C129.279 24.4478 131.21 25.2495 133.224 25.2526H147.209C149.223 25.2495 151.153 24.4477 152.577 23.0232C154.001 21.5987 154.801 19.6677 154.804 17.6536V8.33336C154.803 6.31899 154.002 4.38737 152.578 2.96263C151.154 1.53788 149.223 0.736477 147.209 0.734375ZM148.93 17.6536C148.932 17.8802 148.889 18.105 148.803 18.3148C148.717 18.5246 148.591 18.7152 148.43 18.8755C148.27 19.0357 148.08 19.1624 147.87 19.2482C147.66 19.3339 147.435 19.377 147.209 19.3749H133.224C132.997 19.3776 132.772 19.3347 132.561 19.2489C132.351 19.1631 132.16 19.0361 132 18.8753C131.839 18.7145 131.713 18.5232 131.627 18.3127C131.542 18.1022 131.5 17.8768 131.503 17.6497V8.33336C131.5 8.10625 131.542 7.8808 131.627 7.6703C131.713 7.45981 131.839 7.26852 132 7.10773C132.16 6.94694 132.351 6.81989 132.561 6.73409C132.772 6.64828 132.997 6.60545 133.224 6.60812H147.209C147.436 6.60599 147.661 6.6492 147.871 6.73519C148.081 6.82119 148.271 6.94826 148.432 7.10894C148.592 7.26962 148.719 7.46069 148.804 7.67094C148.89 7.88119 148.932 8.1064 148.93 8.33336V17.6536Z" fill="#000105"/>
<path d="M195.733 0.734375H184.981C183.293 0.733881 181.652 1.29163 180.313 2.3208C178.974 1.30401 177.342 0.747514 175.661 0.734375H164.909C162.894 0.736475 160.963 1.53775 159.538 2.96239C158.113 4.38702 157.312 6.31863 157.31 8.33336V25.2526H163.184V8.33336C163.181 8.10606 163.224 7.88052 163.31 7.67001C163.396 7.45949 163.522 7.26824 163.683 7.10751C163.844 6.94677 164.035 6.81979 164.246 6.73403C164.456 6.64827 164.682 6.60546 164.909 6.60812H175.661C176.116 6.6143 176.551 6.79817 176.873 7.1205C177.194 7.44283 177.377 7.87808 177.382 8.33336V25.2526H183.26V8.33336C183.257 8.10625 183.299 7.8808 183.385 7.6703C183.47 7.45981 183.596 7.26852 183.757 7.10773C183.917 6.94694 184.108 6.81989 184.319 6.73409C184.529 6.64828 184.754 6.60545 184.981 6.60812H195.733C195.961 6.60546 196.186 6.64827 196.397 6.73403C196.607 6.81979 196.798 6.94677 196.959 7.10751C197.12 7.26824 197.247 7.45949 197.333 7.67001C197.418 7.88052 197.461 8.10606 197.459 8.33336V25.2526H203.332V8.33336C203.33 6.31863 202.529 4.38702 201.104 2.96239C199.68 1.53775 197.748 0.736475 195.733 0.734375Z" fill="#000105"/>
</svg>
